<svg xmlns="http://www.w3.org/2000/svg" version="1.1" xmlns:xlink="http://www.w3.org/1999/xlink" xmlns:svgjs="http://svgjs.dev/svgjs" width="1000" height="1000"><svg width="1000" height="1000" viewBox="0 0 264.58333 264.58333" version="1.1" id="SvgjsSvg1050" xml:space="preserve" sodipodi:docname="web-app-icon.svg" inkscape:version="1.4 (e7c3feb100, 2024-10-09)" xmlns:inkscape="http://www.inkscape.org/namespaces/inkscape" xmlns:sodipodi="http://sodipodi.sourceforge.net/DTD/sodipodi-0.dtd" xmlns="http://www.w3.org/2000/svg" xmlns:svg="http://www.w3.org/2000/svg"><sodipodi:namedview id="SvgjsSodipodi:namedview1049" pagecolor="#ffffff" bordercolor="#000000" borderopacity="0.25" inkscape:showpageshadow="2" inkscape:pageopacity="0.0" inkscape:pagecheckerboard="0" inkscape:deskcolor="#d1d1d1" inkscape:document-units="mm" inkscape:zoom="0.71179153" inkscape:cx="649.06645" inkscape:cy="498.03908" inkscape:window-width="1920" inkscape:window-height="1008" inkscape:window-x="0" inkscape:window-y="0" inkscape:window-maximized="1" inkscape:current-layer="layer1"></sodipodi:namedview><defs id="SvgjsDefs1048"></defs><g inkscape:label="Layer 1" inkscape:groupmode="layer" id="SvgjsG1047"><g id="SvgjsG1046" transform="matrix(1.2877405,0,0,1.2877405,-38.065687,-38.065724)" style="fill:#000000"><path id="SvgjsPath1045" style="fill:#000000;fill-opacity:1;stroke-width:0.144781" d="M 80.170817,91.768042 V 126.51528 H 114.91805 V 91.768042 Z m 52.120853,0 v 11.582238 h 11.58224 V 91.768042 Z m 0,11.582238 h -11.58224 v 23.165 h 23.16448 v -11.58276 h -11.58224 z m 17.37361,-11.582238 v 34.747238 h 34.74724 V 91.768042 Z m -60.807655,8.686808 h 17.373615 v 17.37362 H 88.857625 Z m 69.494465,0 h 17.37362 v 17.37362 h -17.37362 z m -65.151061,4.3434 v 8.68681 h 8.686811 v -8.68681 z m 69.494471,0 v 8.68681 h 8.6868 v -8.68681 z" sodipodi:nodetypes="cccccccccccccccccccccccccccccccccccccccccc"></path><path id="SvgjsPath1044" style="fill:#000000;fill-opacity:1;stroke:none;stroke-width:2.98381;stroke-dasharray:none;stroke-dashoffset:0;stroke-opacity:1" d="m 85.517958,66.407867 c -16.17721,0 -29.200669,12.61318 -29.200669,28.28205 V 169.8935 c 0,15.66898 13.023459,28.28205 29.200669,28.28205 h 93.547422 c 16.17723,0 29.20069,-12.61307 29.20069,-28.28205 V 94.689917 c 0,-15.66887 -13.02346,-28.28205 -29.20069,-28.28205 z m 0.48476,12.14002 h 92.578102 c 10.3629,0 18.70849,7.95498 18.70849,17.84072 v 30.977873 c -10.62453,9.08012 -26.35023,22.64944 -31.64709,23.60145 -9.62161,1.72941 -14.73086,-2.85374 -98.340358,-23.40671 l -0.0031,-0.39786 V 96.388607 c 0,-9.88565 8.34099,-17.84072 18.70392,-17.84072 z" sodipodi:nodetypes="ssssssssssssccccss"></path><path id="SvgjsPath1043" style="fill:#000000;fill-opacity:1;stroke-width:0.262436" d="m 149.65857,131.80229 v 11.58327 h 11.52281 0.0723 11.52333 v -11.58327 h -11.52333 -0.0723 z"></path></g></g></svg><style>@media (prefers-color-scheme: light) { :root { filter: none; } }
@media (prefers-color-scheme: dark) { :root { filter: none; } }
</style></svg>