<?xml version="1.0" encoding="UTF-8" standalone="no"?>
<svg
   version="1.1"
   width="1000"
   height="1000"
   id="svg6"
   xmlns="http://www.w3.org/2000/svg"
   xmlns:svg="http://www.w3.org/2000/svg">
  <defs
     id="defs6" />
  <style
     id="style5">@media (prefers-color-scheme: light) { :root { filter: none; } }
@media (prefers-color-scheme: dark) { :root { filter: invert(100%); } }
</style>
  <g
     id="g6"
     transform="matrix(1.0078627,0,0,1.0078627,-5.5094906,-0.83337072)"
     style="fill:#000000">
    <path
       id="rect10"
       style="fill:#000000;fill-opacity:1;stroke:none;stroke-width:14.418;stroke-dasharray:none;stroke-dashoffset:0;stroke-opacity:1"
       d="m 275.55106,178.56962 c -78.16969,0 -141.10021,60.94803 -141.10021,136.66138 v 363.3904 c 0,75.71395 62.93052,136.6614 141.10021,136.6614 h 452.02951 c 78.16981,0 141.10028,-60.94745 141.10028,-136.6614 V 315.231 c 0,-75.71335 -62.93047,-136.66138 -141.10028,-136.66138 z m 2.34243,58.66165 H 725.2391 c 50.07448,0 90.40108,38.43918 90.40108,86.20797 V 473.12709 C 764.30151,517.00302 688.31352,582.57117 662.71864,587.17136 616.22619,595.52804 602.27391,576.83485 198.26541,477.52108 l -10.75094,-5.37552 V 323.43924 c 0,-47.76832 40.30443,-86.20797 90.37902,-86.20797 z" />
    <g
       style="fill:#000000;fill-opacity:1"
       id="g12"
       transform="matrix(0.69959357,0,0,0.69959357,165.76092,891.77944)">
      <path
         d="m 520,-120 v -80 h 80 v 80 z m -80,-80 v -200 h 80 v 200 z m 320,-120 v -160 h 80 v 160 z m -80,-160 v -80 h 80 v 80 z m -480,80 v -80 h 80 v 80 z m -80,-80 v -80 h 80 v 80 z m 360,-280 v -80 h 80 v 80 z M 180,-660 H 300 V -780 H 180 Z m -60,60 v -240 h 240 v 240 z m 60,420 H 300 V -300 H 180 Z m -60,60 v -240 h 240 v 240 z M 660,-660 H 780 V -780 H 660 Z m -60,60 v -240 h 240 v 240 z m 80,480 v -120 h -80 v -80 h 160 v 120 h 80 v 80 z M 520,-400 v -80 h 160 v 80 z m -160,0 v -80 h -80 v -80 h 240 v 80 h -80 v 80 z m 40,-200 v -160 h 80 v 80 h 80 v 80 z m -190,-90 v -60 h 60 v 60 z m 0,480 v -60 h 60 v 60 z m 480,-480 v -60 h 60 v 60 z"
         id="path1-5"
         style="fill:#000000;fill-opacity:1" />
    </g>
  </g>
</svg>
